<?xml version="1.0" standalone="yes"?>
<svg xmlns="http://www.w3.org/2000/svg" width="2200" height="2123">
<path style="fill:#ffffff; stroke:none;" d="M0 0L0 1043C4.28574 1032.81 2.26012 1018.93 4.51466 1008C10.1239 980.799 17.5727 954.154 27.054 928C45.8173 876.243 71.2979 827.267 91.2546 776C103.475 744.606 112.692 712.519 121.244 680C144.901 590.045 153.202 492.29 210.285 415C259.674 348.126 334.634 307.797 405 266.772C445.622 243.088 484.668 217.435 521 187.536C586.038 134.015 643.655 69.9751 720 31.8025C739.195 22.2048 759.361 15.2886 780 9.59424C804.379 2.86792 830.837 1 856 1C849.564 -1.70044 839.951 0 833 0L782 0L607 0L0 0z"/>
<path style="fill:#336de5; stroke:none;" d="M856 0.424316C845.099 1.8562 833.937 1.11133 823 2.16968C794.555 4.92261 765.371 11.4683 739 22.6992C642.383 63.8467 575.098 146.949 493 209.102C429.95 256.834 356.887 289.069 293.004 335.515C265.633 355.414 238.75 377.077 217.888 404C146.105 496.637 141.613 616.808 108.715 725C81.832 813.407 33.2029 893.38 9.60494 983C4.28183 1003.22 2.14517 1024.24 0.169753 1045C-3.41566 1082.68 4.30358 1122.02 14.5725 1158C36.7151 1235.58 78.3585 1305.53 103.41 1382C121.183 1436.25 131.324 1492.6 144.497 1548C156.718 1599.4 171.794 1651.13 200.692 1696C263.06 1792.83 376.513 1834.62 468 1897.03C560.05 1959.82 630.789 2055.01 735 2099.57C765.779 2112.74 799.609 2120.62 833 2122.91C845.884 2123.79 859.085 2123 872 2123C944.708 2123 1016.43 2109.79 1089 2108.01C1118.71 2107.29 1148.49 2110.02 1178 2112.83C1248.94 2119.58 1321.83 2129.07 1393 2119.71C1499.39 2105.72 1577.27 2026.51 1654.01 1959C1675.02 1940.52 1696.65 1923.06 1719 1906.23C1737.68 1892.17 1758.07 1880.42 1778 1868.25C1850.91 1823.72 1931.75 1785.02 1985.33 1716C2019.69 1671.75 2037.71 1618.57 2051.48 1565C2065.92 1508.82 2076.05 1451.73 2092.3 1396C2122.13 1293.64 2188.38 1202.03 2198.83 1094C2211.59 962.111 2132.02 849.386 2092.59 729C2061.34 633.577 2058.79 527.01 2006.27 439C1996.92 423.348 1986.39 407.764 1974.2 394.17C1909.43 321.997 1818.44 285.89 1740 232.112C1707.73 209.984 1677.06 186.074 1648 159.83C1591.17 108.503 1534.26 54.292 1463 23.5679C1410.15 0.782227 1351.56 -1.96143 1295 1.91064C1280.69 2.89014 1266.29 2.80835 1252 4.16968C1201.46 8.98291 1150.84 16 1100 16C1066.84 16 1033.95 12.3193 1001 9.16968C979.714 7.13525 958.286 5.8562 937 3.83032C920.311 2.24194 903.737 1.69312 887 0.960693C876.697 0.509766 866.338 -0.933594 856 0.424316z"/>
<path style="fill:#ffffff; stroke:none;" d="M882 0C886.264 1.78906 891.422 0.902588 896 1.01465C903.322 1.19385 910.644 1.83472 918 2.01465C937.577 2.4939 957.508 5.31323 977 7.16968C1003.99 9.74023 1030.94 13.0579 1058 14.9106C1066.96 15.5239 1076.03 14.7949 1085 15.0146C1103.61 15.4702 1122.31 15.7788 1141 14.9607C1150.02 14.5659 1159.01 13.0249 1168 12.1697C1189.28 10.1443 1210.71 8.85815 1232 6.83032C1260.68 4.09912 1289.14 1 1318 1C1314.04 -0.660889 1309.26 0 1305 0L1280 0L1191 0L882 0M1345 0C1349.33 1.81519 1354.37 0.729248 1359 1.16968C1370.66 2.27954 1382.37 2.61987 1394 4.30029C1426.11 8.94019 1458.47 19.8745 1487 35.3086C1547.61 68.0938 1596.64 115.658 1648 160.714C1681.46 190.061 1715.88 217.471 1753.42 241.456C1840.58 297.139 1941.96 339.893 2000.14 430C2029.14 474.931 2044.04 527.486 2056.23 579C2070.34 638.593 2081.09 699.108 2101.7 757C2124.67 821.542 2158.48 881.707 2179.5 947C2189.57 978.252 2199 1010.93 2199 1044C2202.1 1036.6 2200 1025.01 2200 1017L2200 955L2200 741L2200 0L1345 0M1062 128.424C1043.6 130.841 1024.54 130.397 1006 132.17C972.286 135.394 938.095 140.263 905 147.665C726.132 187.67 557.383 276.824 430.039 410C363.633 479.448 306.828 557.961 263.809 644C162.97 845.677 140.222 1079.97 195.513 1298C224.198 1411.11 276.57 1518.68 345.011 1613C400.708 1689.76 468.709 1757.65 545 1813.88C624.1 1872.19 713.182 1919.9 807 1949.81C891.21 1976.65 977.766 1992.1 1066 1995.96C1120.37 1998.34 1175.13 1994.42 1229 1987.72C1256.26 1984.32 1283.25 1978.45 1310 1972.43C1575.13 1912.69 1806.12 1732.45 1930.74 1491C2004.68 1347.75 2041.02 1184.09 2033.96 1023C2029.95 931.48 2013.06 839.468 1982.46 753C1917.17 568.528 1794.39 405.261 1633 294.026C1541.13 230.704 1440.48 186.021 1333 157.08C1271.06 140.402 1206.96 131.761 1143 128.961C1125.34 128.187 1107.72 128 1090 128C1080.78 128 1071.15 127.223 1062 128.424z"/>
<path style="fill:#336de5; stroke:none;" d="M1078 209.424C1070.68 210.385 1063.35 209.717 1056 210.039C1042.35 210.637 1028.61 211.853 1015 213.17C968.353 217.684 921.126 225.714 876 238.428C656.643 300.234 462.458 447.23 353.309 649C314.755 720.269 286.286 795.223 267.676 874C256.813 919.982 252.126 967.041 248.91 1014C235.236 1213.69 299.058 1416.22 418.895 1576C467.293 1640.53 525.511 1697.74 590 1746.1C659.18 1797.99 736.665 1838.41 818 1867.46C852.021 1879.61 886.88 1888.14 922 1896.24C971.604 1907.68 1022.34 1911.82 1073 1914.04C1119.23 1916.06 1166.11 1914.22 1212 1907.71C1306.47 1894.32 1399.92 1867.65 1485 1823.74C1561.49 1784.26 1631.76 1734.48 1694 1674.96C1855.3 1520.72 1947.55 1302.02 1952.99 1080C1958.71 846.192 1863.43 611.053 1694 449.039C1590.07 349.656 1463.72 277.269 1325 239.36C1268.19 223.836 1210.67 214.929 1152 210.911C1128.13 209.276 1101.85 206.294 1078 209.424z"/>
<path style="fill:#ffffff; stroke:none;" d="M1015 348.432C994.595 351.077 974.417 356.464 954 359.421C947.206 360.404 936.122 359.799 931.742 366.109C927.408 372.353 932.276 385.088 933.435 392C937.409 415.694 941.795 439.301 945.753 463C946.81 469.331 947.864 475.701 949.096 482C949.668 484.927 950.473 488.314 953.225 489.972C958.848 493.361 969.969 489.379 976 488.411C991.36 485.943 1006.71 483.47 1022 480.611C1028.9 479.321 1037.69 478.927 1043.94 475.581C1051.24 471.676 1046.4 462.948 1045.32 457C1044.67 453.38 1044.85 449.442 1040.89 447.742C1036.72 445.949 1031.25 447.538 1027 448.247C1017.01 449.911 1006.93 451.297 997 453.197C987.502 455.014 978.593 455.533 978.728 443.001C978.806 435.741 986.568 435.476 992 434.565C1002.27 432.843 1012.84 431.522 1023 429.331C1027.9 428.274 1032.15 426.479 1032.87 420.996C1033.65 415.054 1032.51 402.578 1026.79 399.179C1022.8 396.817 1017.2 398.393 1013 399.197C1003.71 400.975 994.19 402.068 985 404.259C982.279 404.907 978.819 405.928 976.043 405.088C971.111 403.595 968.904 396.546 970.604 392.015C972.818 386.117 978.854 386.372 984 385.335C994.263 383.267 1004.66 381.632 1015 379.92C1019.33 379.202 1025.31 379.026 1027.82 374.786C1029.95 371.199 1028.61 366.73 1027.74 363C1025.94 355.209 1025.24 347.104 1015 348.432M1190.1 351.028C1182.62 355.182 1182.92 371.521 1181.34 379C1176.05 403.925 1172.03 429.116 1166.58 454C1164.49 463.529 1160.28 475.535 1172 479.906C1174.58 480.867 1177.31 481.463 1180 481.995C1195.28 485.017 1198.66 471.966 1201.35 460C1203.24 451.565 1203.34 437.131 1216 442.148C1223.41 445.087 1224.48 454.23 1226.57 461C1229.68 471.138 1231.69 485.827 1241.02 492.301C1244.89 494.99 1249.45 495.761 1254 496.421C1258.02 497.003 1264.03 498.055 1267.68 495.682C1271.99 492.881 1269.4 485.777 1268.17 482C1265.61 474.14 1263.46 465.988 1261.28 458C1260.49 455.079 1258.64 451.047 1259.12 448.005C1260.11 441.811 1270.81 439.002 1274.91 434.907C1282.74 427.088 1286.48 414.892 1286.96 404C1287.16 399.552 1286.78 395.29 1285.57 391C1277.68 363.037 1245.98 360.359 1222 355.335C1214.99 353.866 1208.02 352.201 1201 350.808C1197.62 350.137 1193.3 349.253 1190.1 351.028z"/>
<path style="fill:#336de5; stroke:none;" d="M1218.04 387.028C1211.13 390.713 1210.04 405.175 1215.43 410.566C1218.29 413.416 1222.34 412.816 1226 413.09C1232.29 413.562 1238.85 416.762 1244.96 413.543C1252.07 409.796 1252.82 399.869 1247.66 394.185C1241.81 387.748 1226.32 382.613 1218.04 387.028z"/>
<path style="fill:#ffffff; stroke:none;" d="M1433.04 430.858C1425.94 433.864 1419.35 446.672 1423.18 453.96C1426.49 460.264 1435.47 462.647 1441 466.57C1443.41 468.288 1447.05 470.654 1446.87 474.039C1446.52 480.375 1438.71 488.726 1435.42 494C1427.71 506.392 1420.04 518.812 1412 531C1407.87 537.264 1401.53 544.657 1399.65 552C1397.43 560.682 1408.3 564.581 1414 568.424C1417.5 570.786 1421.53 573.838 1426 572.242C1432.71 569.844 1436.67 559.673 1440.19 554C1448.73 540.236 1457.39 526.503 1466.33 513C1469.75 507.843 1473.22 500.206 1479.04 497.357C1489.32 492.323 1498.86 508.288 1509 507.681C1516.31 507.244 1523.54 495.607 1524.57 489C1525.95 480.05 1513.12 475.089 1507 471.399C1489.75 460.995 1472.76 450.169 1456 439C1449.66 434.778 1441.23 427.386 1433.04 430.858M757 436.428C731.159 440.129 704.506 455.547 698.517 483C694.364 502.035 701.896 520.343 712.333 536C717.864 544.297 723.461 553.183 731.001 559.815C744.211 571.436 762.378 574.159 779 569.711C801.718 563.631 824.353 544.214 827.996 520C829.134 512.439 828.396 506.356 826.359 499C825.36 495.394 823.988 491.492 819.957 490.449C813.35 488.74 805.379 495.658 801.301 500.09C798.488 503.148 795.692 506.98 794.485 511C792.989 515.98 793.187 521.474 790.272 526C780.857 540.622 762.495 542.855 751.899 528.999C748.023 523.931 744.678 518.464 741.4 513C737.453 506.421 732.208 498.944 732.056 491C731.841 479.838 745.063 468.349 756 468.198C760.237 468.139 763.995 470.38 768 471.391C773.036 472.663 779.055 472.251 784 470.791C789.879 469.056 800.49 465.143 801.422 457.999C802.065 453.07 796.388 448.369 792.996 445.669C782.82 437.57 769.823 434.592 757 436.428M1342 1208C1341.01 1213.46 1337.79 1217.57 1334.57 1222C1328.95 1229.75 1322.76 1237.21 1316 1244C1305.4 1254.65 1293.24 1265.41 1280 1272.69C1255.73 1286.03 1227.89 1291.36 1201 1296.39C1185.79 1299.23 1170.27 1299.42 1155 1301.42C1148.8 1302.24 1140.42 1303.1 1139.15 1295C1137.85 1286.71 1139 1277.39 1139 1269L1139 1216L1139 1053L1139 991C1139 984.422 1136.61 971.916 1140.03 966.148C1142.28 962.359 1146.39 963.494 1150 963.83C1157.48 964.527 1165.49 964.29 1173 963.961C1186.43 963.373 1200.56 961.611 1214 962.613C1223.6 963.328 1231 971.755 1241 972.826C1266.51 975.559 1285.33 953.654 1281.7 929C1278.6 907.959 1257.21 895.337 1237 899.379C1229.05 900.97 1222.91 908.047 1215 908.892C1206.51 909.799 1197.54 909 1189 909L1139 909L1139 882C1139 878.017 1138.11 872.684 1140.03 869.04C1142.83 863.719 1150.11 861.311 1155 858.396C1163.55 853.301 1171.02 847.061 1178 840C1205.05 812.633 1211.25 769.766 1199.81 734C1195.95 721.956 1189.12 710.675 1181.08 701C1147.13 660.175 1083.56 651.773 1040 682.039C1018.02 697.308 1003.03 720.118 996.884 746C989.205 778.358 999.621 817.372 1023 841C1030.76 848.84 1039.27 855.452 1049 860.691C1054.7 863.76 1063.27 865.331 1067.68 870.225C1072.57 875.652 1070 889.127 1070 896C1070 898.565 1070.34 901.536 1069.4 903.981C1067.63 908.567 1063.28 908.97 1059 908.999C1050.33 909.059 1041.67 909 1033 909L1001 909C995.495 909 989.423 909.705 984 908.66C978.864 907.67 974.722 903.937 970 901.876C962.967 898.806 954.598 898.115 947 899.21C927.714 901.99 914.326 923.585 918.211 942C922.472 962.198 940.919 976.829 962 972.331C970.656 970.484 977.41 963.647 986 962.304C1001 959.959 1017.82 962 1033 962C1041.66 962 1050.34 961.897 1059 962.004C1062.4 962.046 1066.91 962.011 1068.97 965.279C1071.88 969.884 1070 979.715 1070 985L1070 1035L1070 1222L1070 1277C1070 1282.68 1072.01 1293.19 1067.57 1297.56C1064.1 1300.98 1057.31 1299.15 1053 1298.58C1040.29 1296.88 1027.63 1295.7 1015 1293.42C984.102 1287.85 949.803 1282.14 922 1266.65C903.308 1256.24 886.668 1238.06 874.155 1221C870.615 1216.17 867.155 1211.13 864.069 1206C862.868 1204 861.245 1201.52 861.817 1199.06C862.684 1195.34 866.978 1195.08 869.999 1194.32C875.683 1192.9 879.817 1189.36 878.767 1183C878.457 1181.12 877.666 1179.55 876.581 1178C875.097 1175.89 873.261 1173.95 871.575 1172C853.83 1151.45 834.228 1132.5 816.424 1112C811.084 1105.85 800.5 1093.44 792.727 1104.11C787.552 1111.21 785.913 1123.62 783.445 1132C778.502 1148.78 772.729 1165.33 767.498 1182C765.104 1189.63 759.083 1200.97 761.653 1208.99C764.928 1219.21 774.503 1214.14 782 1214.35C787.323 1214.5 791.969 1217.75 794.895 1222.02C802.021 1232.4 807.276 1244.32 814.053 1255C825.54 1273.1 838.792 1290.11 853.17 1306C894.876 1352.1 950.858 1385.17 1009 1406.06C1020.68 1410.26 1033.43 1410.38 1045 1414.34C1050.3 1416.16 1054.16 1421.16 1058 1425L1082 1449C1087.5 1454.5 1092.56 1460.48 1101 1459.9C1108.9 1459.36 1113.74 1453.2 1119 1448C1126.21 1440.88 1133.82 1434.18 1141 1427C1144.84 1423.16 1148.76 1417.97 1154 1416.03C1159.54 1413.99 1166.21 1414.41 1172 1413.39C1182.25 1411.57 1192.14 1408.65 1202 1405.33C1217.47 1400.13 1232.27 1392.74 1247 1385.78C1277.68 1371.29 1306.64 1354.72 1332 1331.83C1352.01 1313.76 1370.25 1293.37 1385.33 1271C1391.04 1262.53 1396.5 1253.87 1401.57 1245C1404.13 1240.52 1406.08 1234.68 1410.19 1231.34C1413.91 1228.3 1418.01 1230.91 1422 1231.98C1426.96 1233.31 1432.02 1232.58 1435.77 1228.78C1441.88 1222.58 1437.99 1211.29 1436.08 1204C1430.59 1183.06 1425.73 1162 1420.42 1141C1418.6 1133.78 1418.36 1121.1 1410.96 1117.18C1401.56 1112.21 1390.74 1126.29 1385 1132C1372.63 1144.31 1360.17 1157.14 1347 1168.58C1341.75 1173.13 1336.93 1178.1 1332 1183C1329.25 1185.73 1325.58 1188.44 1324.01 1192.09C1319.19 1203.32 1334.13 1206.94 1342 1208z"/>
<path style="fill:#336de5; stroke:none;" d="M1092 715.428C1046.01 722.031 1029.48 785.51 1068 812.56C1073.46 816.396 1079.52 819.284 1086 820.869C1092.54 822.468 1099.28 823.536 1106 822.572C1114.97 821.284 1123.52 818.662 1131 813.43C1156.68 795.453 1161.34 756.536 1140.7 733.015C1133.57 724.886 1124.14 720.406 1114 717.345C1106.94 715.213 1099.33 714.376 1092 715.428z"/>
<path style="fill:#ffffff; stroke:none;" d="M328 960C327.375 963.363 327.028 966.578 327 970C332.981 971.723 338.311 975.093 344 977.576C357.164 983.319 370.245 989.212 384 993.434C428.711 1007.16 479.302 1007.33 525 998.739C560.87 991.997 591.347 972.829 625 960.064C657.104 947.887 692.709 942.538 727 944.039C756.439 945.328 785.281 949.631 813 960.065C839.822 970.161 864.486 984.987 892 993.434C942.962 1009.08 1000.85 1007.54 1052 994L1052 985C1038.95 985.597 1026.13 991.495 1013 992.829C978.566 996.327 942.933 996.405 909 988.572C874.668 980.646 844.988 961.213 812 949.695C778.321 937.936 743.461 934.83 708 935.001C683.026 935.121 655.62 939.219 632 947.54C608.26 955.904 586.313 968.226 563 977.551C544.95 984.771 526.204 989.569 507 992.561C466.836 998.819 421.619 996.036 383 983.258C369.633 978.835 356.836 972.859 344 967.139C338.653 964.756 333.644 961.626 328 960M1299 944L1297 953C1305.85 953.881 1314.79 957.725 1323 961C1338.97 967.37 1354.28 975.194 1370 982.14C1399.76 995.29 1432.38 1003.19 1465 1003.99C1499.84 1004.84 1534.71 1002.29 1568 991.329C1593.9 982.805 1617.53 969.031 1643 959.425C1663.58 951.663 1685.13 947.253 1707 945.17C1745.52 941.501 1785.25 945.559 1822 957.671C1834.79 961.887 1846.7 968.056 1859 973.424C1864.31 975.743 1869.25 978.975 1875 980C1874.48 977.204 1874.64 973.003 1872.97 970.637C1871.27 968.218 1867.56 967.013 1865 965.756C1857.8 962.213 1850.38 959.016 1843 955.85C1809.4 941.427 1773.47 935 1737 935C1707.03 935 1676.59 937.993 1648 947.515C1621.43 956.366 1597.17 970.738 1571 980.575C1547.26 989.497 1521.27 993.854 1496 994.961C1460.84 996.5 1424.07 993.154 1391 980.576C1371.87 973.302 1353.76 963.81 1335 955.719C1323.59 950.798 1311.4 945.601 1299 944M321 1074C321.001 1078.68 320.254 1085.53 323.013 1089.61C325.078 1092.66 329.836 1093.73 333 1095.26C341.254 1099.25 349.576 1103.09 358 1106.72C382.943 1117.45 409.902 1124.05 437 1125.91C454.077 1127.08 470.943 1126.01 488 1126C520.1 1125.99 552.891 1115.24 582 1102.58C600.701 1094.44 618.659 1084.9 638 1078.23C670.255 1067.11 705.254 1066.19 739 1067.01C759.28 1067.51 779.679 1072.67 799 1078.22C802.634 1079.26 806.429 1079.5 810 1080.81C823.647 1085.84 836.761 1093.61 850 1099.69C868.589 1108.23 887.228 1115.05 907 1120.24C924.479 1124.84 943.073 1125.58 961 1126.01C977.944 1126.43 995.055 1126.88 1012 1124.71C1025.54 1122.99 1038.58 1118.81 1052 1117L1052 1101C1038.22 1103.84 1025.05 1107.97 1011 1109.71C976.668 1113.99 939.581 1113.11 906 1104.27C876.038 1096.38 849.646 1080.82 821 1069.61C793.977 1059.04 764.922 1053.31 736 1052.04C701.047 1050.51 664.266 1053.01 631 1064.5C587.441 1079.56 548.905 1105.07 502 1109.83C463.295 1113.76 422.288 1112.9 385 1100.48C369.832 1095.43 355.563 1088.63 341 1082.14C334.467 1079.23 328.105 1075.26 321 1074M1157 1059L1157 1075C1212.83 1062.23 1273.56 1063.02 1327 1085.42C1339.49 1090.66 1351.69 1096.67 1364 1102.31C1368.29 1104.27 1375.08 1109.02 1380 1108.07C1384.51 1107.19 1389.24 1101.42 1392 1098C1381.75 1092.53 1370.57 1088.54 1360 1083.69C1322.48 1066.47 1285.65 1053.86 1244 1052.04C1224.17 1051.17 1203.65 1051.64 1184 1054.29C1174.95 1055.51 1166.05 1057.83 1157 1059M1430 1108C1432.48 1113.23 1434.52 1118.18 1435 1124C1475.86 1127.22 1517.02 1128.79 1557 1117.44C1590.81 1107.84 1620.89 1089.64 1654 1078.23C1672.97 1071.69 1693.12 1069.06 1713 1067.17C1720.89 1066.42 1729.08 1067 1737 1067C1763.35 1067 1790.92 1069.58 1816 1078.23C1837.31 1085.58 1856.77 1097.88 1878 1105C1878 1100.61 1879.59 1092.37 1876.97 1088.64C1875.26 1086.2 1871.59 1085.29 1869 1084.14C1863.3 1081.6 1857.68 1078.82 1852 1076.23C1825.16 1063.99 1798.08 1057.4 1769 1053.58C1726.79 1048.02 1681.07 1052.43 1641 1066.69C1613.45 1076.5 1588.23 1092.91 1560 1100.84C1532.38 1108.61 1503.71 1112.69 1475 1111.99C1459.9 1111.62 1445.02 1108.65 1430 1108M2199 1080C2199 1113.84 2189.2 1147.09 2178.74 1179C2156.41 1247.13 2121.8 1310.47 2097.79 1378C2056.59 1493.9 2060.4 1632.81 1973.83 1729C1897.63 1813.66 1786.69 1850.72 1699 1920.45C1626.94 1977.75 1564.35 2049.85 1481 2091.52C1447.47 2108.29 1407.89 2121.69 1370 2122C1376.19 2124.6 1385.31 2123 1392 2123L1441 2123L1611 2123L2200 2123L2200 1383L2200 1169L2200 1107C2200 1098.99 2202.1 1087.4 2199 1080M0 1081L0 2123L830 2123C823.757 2120.31 815.72 2120.53 809 2119.83C799.577 2118.84 790.223 2116.59 781 2114.5C751.945 2107.93 723.511 2095.52 698 2080.27C637.599 2044.14 587.776 1994.19 535 1948.29C507.603 1924.46 478.489 1902.98 447.985 1883.32C357.653 1825.1 251.82 1781.5 194.603 1685C148.105 1606.58 138.243 1511.89 116.486 1425C96.3481 1344.57 54.344 1272.68 26.6983 1195C17.6182 1169.49 10.0816 1143.53 4.80787 1117C3.65594 1111.2 2.51179 1104.89 2.08951 1099C1.68151 1093.31 2.21243 1086.27 0 1081M338 1221C338.105 1225.92 339.614 1230.22 340.539 1235C341.269 1238.77 341.379 1243.37 343.924 1246.5C348.208 1251.77 358.907 1253.89 365 1256.42C388.229 1266.09 412.316 1269.17 437 1272.42C446.846 1273.72 457.078 1273 467 1273C500.861 1273 533.114 1268.29 565 1256.56C590.182 1247.3 613.275 1232.76 639 1224.89C674.172 1214.12 708.663 1214 745 1214C743.015 1206.5 743.397 1200.64 744 1193C708.579 1193 673.426 1192 639 1202.57C610.798 1211.22 585.349 1225.69 558 1236.39C541.611 1242.8 524.387 1247 507 1249.57C470.263 1255.01 428.782 1254.1 393 1243.56C373.802 1237.91 356.372 1228.65 338 1221M1157 1200L1157 1221C1168.77 1220.07 1180.24 1216.35 1192 1215.17C1221.49 1212.22 1251.85 1212.94 1281 1218.39C1292.49 1220.54 1311.48 1230.47 1315 1213C1311.26 1209.95 1309.14 1204.9 1304.9 1202.56C1301.27 1200.55 1296.98 1200.2 1293 1199.34C1283.99 1197.38 1275.15 1195.84 1266 1194.72C1229.46 1190.23 1193 1192.57 1157 1200M1409 1266C1424.66 1267.25 1440.26 1271.33 1456 1272.83C1464.55 1273.64 1473.42 1273 1482 1273C1505.53 1273 1529.09 1271.6 1552 1265.71C1603.01 1252.61 1646.57 1220.28 1700 1215.17C1732.49 1212.06 1768.22 1211.95 1800 1220.49C1812.61 1223.88 1825 1228.3 1837 1233.42C1843.79 1236.32 1850.73 1240.7 1858 1242C1859.59 1235.03 1861.81 1228.03 1863 1221C1854.77 1218.63 1846.94 1214.13 1839 1210.86C1828.72 1206.63 1817.82 1203.06 1807 1200.5C1759.77 1189.33 1709.23 1189.6 1662 1200.5C1634.09 1206.94 1609.09 1221.41 1583 1232.57C1565.35 1240.13 1546.94 1245.73 1528 1248.92C1506.59 1252.53 1482.67 1253.89 1461 1251.83C1451.32 1250.91 1441.65 1250.02 1432 1248.72C1428.54 1248.25 1423.61 1246.35 1420.21 1247.64C1414.98 1249.63 1410.16 1260.94 1409 1266M939 1251C944.734 1255.63 953.048 1257.43 960 1259.57C977.276 1264.87 997.721 1272.19 1016 1270.91C1028.23 1270.05 1039.9 1265.2 1052 1264L1052 1242C1036.24 1244.04 1021.02 1249.3 1005 1250.83C982.907 1252.94 961.065 1251 939 1251M562 1461C558.827 1472.87 544.519 1498.58 563.004 1505.27C572.736 1508.8 584.746 1504.1 595 1506C587.631 1512.79 579.778 1519.08 572 1525.39C566.972 1529.47 556.158 1534.86 555.383 1542C554.857 1546.86 558.986 1550.66 561.831 1554C566.373 1559.34 570.698 1567.63 579 1563.86C587.687 1559.92 595.684 1551.29 603 1545.25C616.893 1533.77 630.986 1522.52 645 1511.2C650.361 1506.86 655.709 1502.5 661 1498.08C663.788 1495.75 667.35 1493.37 668.957 1490C671.114 1485.46 667.477 1480.36 664.671 1477C655.276 1465.76 643.368 1465.52 630 1467.28C617.012 1468.99 604.054 1471.97 591 1473C595.465 1462.97 599.196 1452.36 602.834 1442C605.882 1433.32 613.479 1421.43 610.297 1412C608.663 1407.16 604.503 1403.28 600.911 1399.83C598.019 1397.06 594.461 1392.9 590 1393.41C586.478 1393.82 583.483 1396.82 581 1399.09C576.451 1403.24 571.802 1407.14 567 1411C551.569 1423.4 536.456 1436.19 521 1448.55C514.338 1453.88 504.764 1459.07 499.894 1466.17C494.646 1473.82 502.707 1481.53 507.428 1487C509.938 1489.91 512.85 1493.52 517 1493.75C524.137 1494.14 530.982 1485.54 536 1481.42C544.445 1474.5 552.73 1466.79 562 1461M1608 1404.44C1583.78 1408.11 1570.87 1431.44 1556.8 1449C1551.72 1455.34 1541.22 1463.79 1544.74 1473C1547.11 1479.18 1554.97 1483.48 1560 1487.35L1596 1515.12C1605.79 1522.66 1615.45 1530.41 1625 1538.25C1629.59 1542.02 1634.6 1546.29 1641 1544.57C1644.98 1543.49 1647.48 1540.12 1649.87 1537C1651.82 1534.45 1653.97 1531.87 1655.43 1529C1660.8 1518.48 1648.96 1512.27 1642 1506.79C1637.92 1503.58 1626.92 1498.21 1630.21 1492C1638.36 1476.59 1659.39 1488.87 1672 1490.55C1682.84 1491.99 1692.17 1484.48 1697.91 1476C1700.6 1472.02 1704.64 1464.85 1698.85 1461.57C1695.71 1459.79 1691.49 1459.69 1688 1459.08C1681.98 1458.01 1676.02 1456.55 1670 1455.46C1665.94 1454.73 1661.55 1455.01 1658.06 1452.44C1651.11 1447.33 1654.21 1438.03 1651.27 1431C1644.51 1414.78 1626.16 1401.69 1608 1404.44z"/>
<path style="fill:#336de5; stroke:none;" d="M1607 1438.67C1600.27 1440.57 1593.81 1447.69 1589.67 1453C1588.15 1454.95 1586 1457.38 1585.95 1460C1585.83 1465.39 1598.62 1476.26 1603.99 1475.17C1606.68 1474.62 1608.56 1471.99 1610.19 1470C1614.49 1464.73 1620.92 1457.16 1620.91 1450C1620.9 1443.21 1613.91 1436.72 1607 1438.67z"/>
<path style="fill:#ffffff; stroke:none;" d="M1480 1526.7C1473.77 1528.77 1468.27 1534.52 1463 1538.29C1451.05 1546.84 1439.04 1555.29 1427 1563.72C1421.88 1567.3 1412.3 1571.81 1412.21 1579C1412.12 1586.93 1421.49 1595.91 1425.86 1602C1439.2 1620.62 1452.58 1639.23 1465.72 1658C1469.83 1663.87 1477.17 1679.42 1486 1677.31C1492.93 1675.65 1499.34 1668.76 1505 1664.71L1540 1639.86C1544.85 1636.4 1551.89 1632.93 1555.26 1627.91C1560.04 1620.77 1551.02 1607.13 1544 1604.61C1539.26 1602.9 1534.66 1605.99 1531 1608.64C1522.71 1614.64 1514.3 1620.44 1506 1626.42C1498.71 1631.68 1493.11 1636.37 1486.81 1627C1481.57 1619.21 1491.52 1614.45 1497 1610.58C1503.71 1605.83 1510.39 1601.04 1517 1596.15C1520.15 1593.81 1524.02 1591.29 1524.47 1587C1524.87 1583.2 1521.91 1579 1519.9 1576C1518.49 1573.9 1516.88 1571.88 1514.96 1570.23C1507.46 1563.78 1501.39 1569.99 1495 1574.57C1489.09 1578.81 1482.83 1582.54 1477 1586.9C1473.76 1589.32 1468.55 1595.35 1464.04 1593.17C1455.97 1589.28 1455.46 1581.2 1462.02 1576.29C1469.88 1570.41 1477.92 1564.61 1486 1559.03C1490.16 1556.15 1496.06 1553.53 1498.54 1548.91C1503.31 1540.03 1489.65 1523.51 1480 1526.7M752 1557.7C742.73 1560.82 733.636 1570.8 726 1576.79C709.058 1590.08 691.982 1603.19 675 1616.42C669.093 1621.03 662.596 1625.44 657.189 1630.61C655.202 1632.52 653.015 1635.02 654.161 1637.96C655.29 1640.86 658.618 1642.69 661 1644.42C667.432 1649.11 674.455 1655.02 683 1652.35C690.614 1649.96 692.569 1642.35 701 1647.43C707.472 1651.33 713.581 1655.82 720 1659.81C723.744 1662.13 728.774 1664.53 731.397 1668.18C734.158 1672.03 732.649 1677.59 733.184 1682C734.429 1692.26 744.124 1705.83 755.995 1702.43C763.291 1700.33 762.225 1692.95 763.259 1687C764.422 1680.31 767.26 1673.71 768.718 1667C773.014 1647.25 778.355 1627.71 782.887 1608C784.793 1599.71 789.713 1589.6 788.747 1581C787.562 1570.45 773.937 1565.64 766 1561.13C761.508 1558.57 757.352 1555.91 752 1557.7z"/>
<path style="fill:#336de5; stroke:none;" d="M742 1638L751 1600C743.418 1603.21 736.053 1609.62 730.005 1615.17C727.607 1617.37 724.119 1620.37 724.466 1624C725.099 1630.62 736.594 1635.95 742 1638z"/>
<path style="fill:#ffffff; stroke:none;" d="M1309 1624.42C1286.65 1627.33 1264 1636.77 1254.34 1659C1248.23 1673.04 1251.96 1685.95 1255.53 1700C1258.95 1713.52 1263.16 1728.13 1272.33 1739C1286.7 1756.04 1311.85 1758.22 1332 1752.71C1353.13 1746.94 1370.89 1727.95 1372.83 1706C1373.34 1700.21 1371.89 1693.66 1370.71 1688C1369.29 1681.12 1366.06 1665.78 1358.9 1662.74C1354.24 1660.77 1349.33 1662.9 1345 1664.54C1335.92 1667.98 1324.11 1669.49 1316.06 1674.99C1312.9 1677.15 1311.72 1680.25 1312.22 1684C1312.92 1689.32 1316.11 1701.09 1322.04 1702.53C1326.8 1703.68 1334.86 1697.49 1337.93 1703.15C1339.75 1706.51 1337.3 1711.25 1335.35 1714C1330.31 1721.12 1318.87 1727.11 1310 1724.35C1301.82 1721.8 1297.18 1713.19 1293.78 1706C1285.97 1689.46 1279.37 1664.66 1301 1655.37C1308.12 1652.3 1314.23 1656.66 1321 1658.39C1328.84 1660.4 1336.55 1658.15 1344 1655.88C1347.11 1654.94 1351.06 1654.36 1353.57 1652.12C1359.08 1647.2 1351.74 1639.56 1347.99 1636.19C1338.25 1627.44 1321.96 1622.74 1309 1624.42M902 1697C909.874 1711.77 914.378 1729.1 919.495 1745C921.843 1752.29 923.362 1762.36 929.108 1767.79C934.278 1772.67 940.422 1772.59 947 1773.42C950.221 1773.83 953.736 1774.34 956.107 1771.57C958.257 1769.05 958.204 1765.09 958.885 1762C960.22 1755.94 962.034 1750 963.58 1744C968.298 1725.68 972.99 1707.02 978.745 1689C981.468 1680.47 987.699 1668.02 986.682 1659C986.392 1656.43 984.993 1654.23 982.891 1652.74C980.606 1651.12 977.641 1650.73 975 1649.99C969.351 1648.41 961.687 1644.73 956.214 1648.74C949.744 1653.49 949.332 1667.73 947.487 1675C944.932 1685.07 941.496 1694.9 939 1705C931.494 1688.95 926.449 1670.91 921.175 1654C918.682 1646 917.331 1635.86 908.996 1631.76C903.72 1629.17 890.547 1625.17 885.434 1629.6C883.078 1631.65 882.94 1635.15 882.388 1638C881.292 1643.65 879.862 1649.48 878.23 1655C871.76 1676.89 865.71 1698.98 859.718 1721C857.868 1727.8 852.133 1737.92 854.897 1744.96C856.905 1750.07 862.338 1750.7 867 1751.9C873.122 1753.46 881.213 1757.88 886.347 1751.77C889.898 1747.54 889.953 1740.17 891.427 1735C894.948 1722.65 900.128 1709.68 902 1697M1119 1659.46C1111.97 1660.08 1101.68 1660.32 1096.22 1665.39C1090.36 1670.84 1088.87 1683.55 1086.59 1691C1080.55 1710.7 1074.3 1730.32 1068.18 1750C1065.38 1758.99 1062.87 1768.08 1059.86 1777C1058.59 1780.77 1057.19 1785.23 1060.43 1788.43C1066.61 1794.53 1080.92 1789.28 1086.96 1785.29C1092.73 1781.48 1093.25 1774.48 1098.23 1770.74C1101.22 1768.49 1105.48 1769 1109 1769C1114.3 1769 1119.72 1769.33 1125 1768.83C1130.03 1768.35 1136.02 1766.85 1140.91 1768.89C1146.83 1771.37 1146.2 1779.4 1150.39 1783.66C1155.93 1789.28 1168.86 1786.81 1176 1785.81C1182.55 1784.9 1183.13 1780.58 1181.57 1775C1179.47 1767.49 1176.19 1760.28 1173.42 1753C1164.17 1728.66 1155.6 1703.91 1145.28 1680C1140.33 1668.52 1132.99 1658.24 1119 1659.46z"/>
<path style="fill:#336de5; stroke:none;" d="M1118 1701C1114.02 1709.12 1112.13 1718.45 1109.14 1727C1108.04 1730.15 1106.06 1734.4 1108.18 1737.57C1110.93 1741.66 1121.71 1740.39 1125.98 1739.89C1128.12 1739.64 1130.02 1739.04 1130.68 1736.77C1131.71 1733.21 1129.87 1729.23 1128.6 1726C1125.46 1717.97 1123.22 1707.9 1118 1701z"/>
<path style="fill:#ffffff; stroke:none;" d="M912 2122C915.699 2123.55 920.017 2123 924 2123L945 2123L1022 2123L1289 2123C1286.11 2121.79 1283.1 2122.08 1280 2121.71C1271.94 2120.76 1264.09 2120.32 1256 2119.96C1238.38 2119.19 1220.55 2116.5 1203 2114.83C1150.23 2109.8 1098 2106.46 1045 2110.09C1015.99 2112.08 986.925 2115.42 958 2118.17C942.786 2119.62 927.297 2121.99 912 2122z"/>
</svg>
