<?xml version="1.0" standalone="no"?>
<!DOCTYPE svg PUBLIC "-//W3C//DTD SVG 20010904//EN"
 "http://www.w3.org/TR/2001/REC-SVG-20010904/DTD/svg10.dtd">
<svg version="1.0" xmlns="http://www.w3.org/2000/svg"
 width="820.000000pt" height="820.000000pt" viewBox="0 0 820.000000 820.000000"
 preserveAspectRatio="xMidYMid meet">
<metadata>
Created by potrace 1.15, written by Peter Selinger 2001-2017
</metadata>
<g transform="translate(0.000000,820.000000) scale(0.100000,-0.100000)"
fill="#245fd5" stroke="none">
<path d="M4079 8112 c-14 -2 -2848 -1466 -2999 -1548 -25 -14 -51 -33 -57 -43
-14 -22 -753 -3498 -753 -3540 0 -34 -98 101 1134 -1561 516 -696 951 -1278
967 -1295 l29 -30 1671 -3 c1131 -1 1683 1 1710 8 36 10 91 82 1084 1421 575
775 1051 1420 1056 1433 9 19 -62 364 -361 1777 -205 965 -376 1764 -381 1776
-4 12 -25 33 -46 46 -57 36 -2995 1553 -3018 1559 -11 2 -27 2 -36 0z m2261
-2371 c157 -167 331 -723 299 -956 -4 -32 -14 -64 -22 -72 -21 -21 -1155 -375
-1177 -368 -64 20 -190 236 -264 451 -79 231 -118 512 -83 596 15 36 18 38
149 79 73 23 329 104 568 180 239 75 446 138 459 138 17 1 39 -14 71 -48z
m-1276 -638 c34 -202 117 -448 202 -601 21 -37 38 -69 38 -70 1 -6 -2027 -647
-2257 -713 -42 -12 -86 33 -145 149 -85 165 -142 372 -144 520 -1 70 1 86 18
102 12 12 428 148 1129 368 611 193 1117 351 1125 351 12 1 20 -24 34 -106z
m-2937 -747 c2 -2 16 -41 31 -88 l27 -85 264 83 c145 46 268 81 273 78 4 -3 8
-20 8 -37 1 -77 71 -321 121 -419 l19 -37 -133 -42 c-683 -215 -723 -227 -739
-218 -63 34 -158 290 -158 422 0 49 7 62 38 72 22 6 23 5 12 -15 -15 -28 -7
-107 22 -210 39 -143 99 -250 140 -250 l21 0 -20 23 c-31 33 -78 132 -103 217
-21 68 -43 250 -30 248 11 -2 60 22 60 29 0 4 -12 43 -26 86 l-26 78 23 25
c28 30 103 55 143 49 16 -3 31 -7 33 -9z m2153 -340 c0 -18 3 -47 6 -64 6 -30
5 -30 -65 -53 l-71 -23 0 -109 c0 -100 -1 -109 -17 -102 -51 21 -100 25 -150
12 l-53 -14 0 72 0 73 -120 -38 -119 -38 -35 59 -35 58 133 42 c74 23 214 68
312 99 99 32 187 58 197 59 13 1 17 -7 17 -33z m-167 -400 c72 -30 117 -121
97 -196 -22 -81 -88 -130 -175 -130 -136 0 -218 140 -150 257 15 25 41 51 63
63 44 23 119 26 165 6z m687 -1193 c293 -538 535 -981 537 -985 6 -11 -58 -41
-67 -31 -5 4 -266 422 -580 928 -499 804 -569 921 -554 930 40 24 76 60 95 96
11 22 23 39 27 39 5 0 248 -440 542 -977z m-913 887 c38 -38 59 -51 92 -56 25
-4 40 -11 38 -18 -3 -6 -271 -432 -597 -946 -326 -514 -604 -952 -617 -973
l-24 -38 -30 18 c-17 10 -33 23 -36 29 -3 9 1113 2034 1121 2034 2 0 25 -22
53 -50z m173 -1056 c-38 -483 -71 -888 -72 -899 -3 -16 -9 -19 -38 -17 -19 2
-37 6 -39 8 -7 7 49 1669 58 1696 5 15 30 61 57 103 l48 75 28 -43 28 -43 -70
-880z"/>
<path d="M6265 5661 c-27 -124 143 -687 251 -828 41 -54 54 -44 54 38 0 185
-158 673 -254 787 -34 40 -43 40 -51 3z"/>
</g>
</svg>
