<?xml version="1.0" encoding="UTF-8" standalone="no"?>
<svg
   xmlns:dc="http://purl.org/dc/elements/1.1/"
   xmlns:cc="http://creativecommons.org/ns#"
   xmlns:rdf="http://www.w3.org/1999/02/22-rdf-syntax-ns#"
   xmlns:svg="http://www.w3.org/2000/svg"
   xmlns="http://www.w3.org/2000/svg"
   xmlns:sodipodi="http://sodipodi.sourceforge.net/DTD/sodipodi-0.dtd"
   xmlns:inkscape="http://www.inkscape.org/namespaces/inkscape"
   role="img"
   viewBox="-2.18 -8.18 1000 1200"
   version="1.1"
   id="svg60"
   sodipodi:docname="argo.svg"
   width="1000"
   height="1200"
   inkscape:version="0.92.4 (33fec40, 2019-01-16)">
  <metadata
     id="metadata66">
    <rdf:RDF>
      <cc:Work
         rdf:about="">
        <dc:format>image/svg+xml</dc:format>
        <dc:type
           rdf:resource="http://purl.org/dc/dcmitype/StillImage" />
        <dc:title>Argo logo</dc:title>
      </cc:Work>
    </rdf:RDF>
  </metadata>
  <defs
     id="defs64" />
  <sodipodi:namedview
     pagecolor="#ffffff"
     bordercolor="#666666"
     borderopacity="1"
     objecttolerance="10"
     gridtolerance="10"
     guidetolerance="10"
     inkscape:pageopacity="0"
     inkscape:pageshadow="2"
     inkscape:window-width="1920"
     inkscape:window-height="1025"
     id="namedview62"
     showgrid="false"
     inkscape:zoom="0.13678305"
     inkscape:cx="551.10631"
     inkscape:cy="332.06655"
     inkscape:window-x="0"
     inkscape:window-y="27"
     inkscape:window-maximized="1"
     inkscape:current-layer="svg60" />
  <title
     id="title2">Argo logo</title>
  <style
     id="style4">svg {enable-background:new 0 0 1151.8 1710.1}</style>
  <style
     id="style6">.st0{fill:#fefefe}</style>
  <path
     d="m 433.65266,953.09654 c 0.1,0 0.2,0.3 0.2,0.9 l 0.3,12.5 c 0.6,-3.2 1.2,-6.4 1.9,-9.7 -0.5,-6.1 -5.3,-3 -2.4,-3.7 z m 262.4,-342 c -0.1,0.1 -0.3,0.1 -0.4,0.2 0.1,0.1 0.3,0.2 0.4,0.3 -0.1,-0.1 0,-0.3 0,-0.5 z m -165.3,-419.8 v 0.1 h 0.3 c -0.1,0 -0.2,-0.1 -0.3,-0.1 z"
     class="st0"
     id="path10"
     inkscape:connector-curvature="0"
     style="fill:#fefefe" />
  <path
     d="m 671.25266,1034.3965 c 1.3,-14.5 0.6,-29.2 2.4,-43.6 4,-31.69996 0.2,-64.09996 8.5,-95.39996 4.1,-16.2 -9,-35.2 7.8,-49.4 l -4.2,-13.8 c -4.7,-7.8 -2.3,-15.4 0.5,-23 -0.3,-27.8 0,-55.6 5,-83.1 1.5,-38.2 3.1,-76.4 4.6,-114.7 -0.1,-0.1 -0.3,-0.2 -0.4,-0.3 -81.7,37.5 -158.7,-15 -171.8,-78 -8.6,-41.4 -4,-80.5 28.3,-112.1 5.4,-5.3 10,-11.4 15,-17.2 13.2,-79.1 4,-151.7 -63.6,-208.3 10.1,-5.8 19.2,-2.5 27.4,-4 v -0.1 c -82.9,-20.8 -183.5,35.9 -216.8,122.5 -10,26 -15.4,52.8 -13.7,80.7 82.2,-38.1 155.9,7.4 176.2,76.7 21.1,72.1 -35.1,148.4 -109.8,149.5 -21.8,0.3 -42.5,-3.3 -63.1,-9.4 1.5,39.8 3.1,79.6 4.6,119.4 2.9,26.1 6,52.1 4.7,78.4 l 0.6,18.6 c -0.2,4.1 -0.4,8.2 -0.6,12.4 6.1,25 7.4,50.7 9.3,76.3 -0.2,-0.7 -0.3,-1.3 -0.4,-2 0.1,0.7 0.3,1.3 0.4,2 2,43.5 3.2,87.09996 6.3,130.59996 1.3,18 -5.2,27 -21.8,31.6 -19.6,5.5 -38.9,12.1 -58.3,18.3 26,3.6 51.6,4 77.2,3.4 27.7,-0.6 40.3,-12.9 43,-40.4 1.7,-17.5 3.2,-35 4.8,-52.5 1.8,-31.69996 3.6,-63.49996 5.4,-95.19996 h 3.9 v 90.49996 c 0.5,13.7 0.7,27.5 1.6,41.2 4,63.9 5.9,63.5 -57.8,76.4 -1.5,0.3 -2.8,1.2 -4.2,1.8 3.8,2.5 7.6,5 11.4,7.6 1.2,0.3 2.2,0.8 2.8,1.9 15.2,0.1 30.5,1.4 45.5,0 27.3,-2.6 40.2,-17.2 42.2,-44.3 1.2,-17.4 3,-34.8 4.5,-52.2 -2.4,-23.1 1.1,-45.8 5.4,-68.49996 l -0.3,-12.5 c 0,-0.6 -0.2,-1 -0.2,-0.9 -2.9,0.7 1.9,-2.4 2.4,3.7 0.5,-2.7 1.1,-5.4 1.6,-8.1 v 104.79996 c 0.3,12.3 0.7,24.5 0.9,36.8 0.5,44.5 -2.3,48.5 -44.7,61.2 -11.7,3.5 -23.9,5.6 -35.5,9.5 -8.4,2.9 -19.1,1.3 -27,11.2 34.5,-1.3 66.8,2.6 98.9,-2.6 33.2,-5.4 46.4,-18.8 53.2,-51.2 5,-23.8 7.1,-48.3 16.2,-72.4 1.3,2.6 2.3,3.8 2.6,5.2 4.6,22.5 9.2,45.1 13.6,67.6 6.2,31.5 19,44.9 51,50.5 33.1,5.7 66.6,1.8 100.9,2.6 -4.9,-8.4 -12.6,-7 -18.8,-8.8 -21.3,-6.2 -43,-11.5 -63.9,-18.7 -15.2,-5.3 -26.1,-15 -25.9,-33.7 0.5,-51.2 0.2,-102.4 0.2,-153.59996 h 6.2 c 2.2,32.09996 4.8,64.09996 6.5,96.19996 3.9,74.2 12.7,82.3 87.2,78.2 4.2,-7 14.5,-1.5 18.4,-9 -17.9,-0.1 -33.5,-8.7 -49.9,-14.2 -9.2,-3.1 -14.4,-11.4 -14.2,-21.6 0.8,-52.6 -1.2,-105.4 5.9,-157.79996 4.3,44 7.7,88.09996 11.1,132.09996 1.6,20.6 10.9,36.7 32.5,38.1 29.2,2 58.5,0.5 87.8,0.5 -15.5,-7.8 -31.4,-12.4 -47.2,-17.4 -35.8,-11.5 -35.6,-11.6 -32.3,-48 z m -225.2,-750.29996 c -0.3,14.7 -11.7,26.3 -26.6,26.6 -15.7,0.3 -27.5,-8.7 -27.8,-29.1 1.7,-14.8 10,-24.9 27.6,-25.3 18.7,-0.3 27.1,12.3 26.8,27.8 z m 120.2,437.4 c 0.1,40.5 -30.9,75.8 -66.3,75.7 -33.4,-0.1 -67.5,-39.5 -66.3,-76.7 -1.8,-11 -3.7,-22.1 -6.2,-37.5 23.9,16.3 44,33 70.9,33.6 27.5,0.5 49.1,-13.6 71.6,-30.1 4.8,13.2 -7.3,23.5 -3.7,35 z"
     id="path14"
     inkscape:connector-curvature="0"
     style="fill:#fe733e" />
  <path
     d="m 312.95266,809.09653 c -2,-0.7 -3.9,-1.6 -5.8,-2.3 -27.4,-11.2 -51.1,-28.4 -73.1,-47.5 -79.4,-68.6 -131.80001,-154.5 -144.500009,-258.7 -14.4,-118.4 12.099999,-227.7 91.100009,-321.6 72.1,-85.599988 164,-135.499992 273.7,-146.999992 121.9,-12.700001 231.4,21.4 323.6,105.599992 76.9,70.2 121.8,157.2 133.3,259.5 9.8,87.1 -5.9,171.3 -50.7,247.8 -40.7,69.5 -94.9,125.9 -168.2,161.6 -2,1 -4,2 -6,2.9 -2.8,7.6 -5.3,15.2 -0.5,23 1.7,-1.5 3.2,-3.4 5.2,-4.5 110.7,-58.6 187.5,-145.7 223.4,-266.9 3.1,-10.3 7.9,-15.4 19.4,-14.2 15.6,1.6 19.8,-8.8 19.8,-21.8 0.1,-49.9 0.1,-99.7 0.1,-149.6 0,-10.7 -2.6,-22.5 -13.7,-23.7 -20.4,-2.4 -22.9,-17.3 -27,-31.8 -24,-84.4 -70.2,-154.6 -138.8,-208.49999 -141,-110.7000019 -295.8,-130.700002 -458.2,-55.900002 -120.7,55.500002 -197.60001,151.799992 -232.400009,280.699992 -2.2,8 -1.2,17.5 -14.8,14.7 -19.4,-4 -26.7,7.4 -26.8,24.6 -0.3,49.9 -0.1,99.7 -0.1,149.6 0,16.6 8.4,25.4 24.4,21.5 14.7,-3.6 18.2,3.7 21.2,14.9 12.999999,47.8 34.699999,91.5 64.100009,131.4 43,58.3 95.4,105.1 162,134.9 -0.2,-6.2 -0.4,-12.5 -0.7,-18.7 z"
     id="path16"
     inkscape:connector-curvature="0"
     style="fill:#b5d2f3" />
  <path
     d="m 313.05266,840.09654 c -14.8,41.5 -54.2,40.5 -87.7,50.9 25.2,6.5 50.8,14 76,9.7 15,-2.6 17.9,2.8 20.1,11.7 0.2,0.7 0.3,1.4 0.5,2.1 0.1,0.6 0.3,1.3 0.4,2 -1.9,-25.7 -3.2,-51.3 -9.3,-76.4 z"
     id="path22"
     inkscape:connector-curvature="0"
     style="fill:#fe684b" />
  <path
     d="m 682.15266,895.49654 c 32,14.5 62.2,-0.1 93.1,-4.3 -30.2,-12.8 -69.3,-6.2 -85.2,-45.1 -16.9,14.2 -3.8,33.2 -7.9,49.4 z"
     id="path24"
     inkscape:connector-curvature="0"
     style="fill:#fe6446" />
  <path
     d="m 437.65266,948.69654 c -0.5,2.7 -1.1,5.4 -1.6,8.1 -0.6,3.2 -1.3,6.4 -1.9,9.7 -4.3,22.69996 -7.8,45.39996 -5.4,68.49996 7.5,3.9 2,14.2 8.9,18.4 z"
     id="path26"
     inkscape:connector-curvature="0"
     style="fill:#fed6c8" />
  <path
     d="m 378.95266,912.09654 c -1.8,31.7 -3.6,63.5 -5.4,95.19996 3.1,-1.6 6.2,-3.1 9.3,-4.7 v -90.49996 z"
     id="path28"
     inkscape:connector-curvature="0"
     style="fill:#feebe3" />
  <path
     d="m 284.95266,1131.4965 h 51.6 c -0.9,-0.6 -1.9,-1.2 -2.8,-1.9 -3.8,-2.5 -7.6,-5 -11.4,-7.6 -11.3,-0.6 -21.9,1.9 -37.4,9.5 z"
     id="path30"
     inkscape:connector-curvature="0"
     style="fill:#fe9166" />
  <path
     d="m 659.15266,1131.4965 h 50.2 c -10.2,-5.9 -20.2,-10.9 -31.8,-9 -3.9,7.6 -14.3,2 -18.4,9 z"
     id="path32"
     inkscape:connector-curvature="0"
     style="fill:#fe8f64" />
  <path
     d="m 692.45266,806.39653 c 73.3,-35.6 127.4,-92 168.2,-161.6 44.8,-76.5 60.5,-160.7 50.7,-247.8 -11.5,-102.4 -56.3,-189.4 -133.3,-259.5 -92.2,-84.099992 -201.7,-118.299993 -323.6,-105.499992 -109.6,11.4 -201.6,61.400004 -273.7,146.999992 -79.10001,93.9 -105.500009,203.2 -91.100009,321.6 12.699999,104.3 65.100009,190.1 144.500009,258.7 22.1,19.1 45.8,36.4 73.1,47.5 1.9,0.8 3.8,1.6 5.8,2.3 1.3,-26.3 -1.8,-52.3 -4.7,-78.4 -2,-1.4 -4,-2.8 -6,-4.3 -20.3,-14.7 -37.7,-32.8 -55.2,-50.6 -5.3,-5.4 -11.9,-10 -11.9,-18.8 -11.8,8.5 -20.3,2.6 -27.2,-6.8 -38.4,-52.4 -61.6,-110.5 -64.70001,-175.9 -2.8,-57.8 2.40001,-114 26.70001,-168.1 30.9,-68.7 78.4,-121.2 142.2,-160.2 10.8,-6.6 17,-0.7 24.5,4.2 7.3,-0.7 13.8,-3.2 18.5,-9.2 l -0.9,-2.1 c -6.4,-13.5 -6.7,-28.79999 8.7,-32.39999 15.5,-3.7 24.3,8.9 24.4,25.19999 115.7,-37.999988 223.3,-22.59999 320.4,51.5 72.6,55.4 114.2,129.7 126.9,220.3 16.4,116.5 -23,213.1 -104.2,294.8 -9.6,9.6 -20.4,18.3 -32.6,24.8 -2.1,1.1 -4.2,2.1 -6.3,3.1 -5,27.5 -5.3,55.3 -5,83.1 1.8,-0.9 3.7,-1.9 5.8,-2.9 z"
     id="path34"
     inkscape:connector-curvature="0"
     style="fill:#e2f5fc" />
  <path
     d="m 730.35266,698.39653 c 81.1,-81.7 120.5,-178.3 104.2,-294.8 -12.7,-90.7 -54.3,-165 -126.9,-220.3 -97.1,-74.09999 -204.8,-89.399988 -320.4,-51.5 -0.2,0.1 -0.4,0.3 -0.6,0.4 -9.1,5.8 -16.2,18.3 -29.3,10.5 -0.8,-0.5 -1.5,-0.9 -2.3,-1.5 -4.7,6 -11.1,8.5 -18.5,9.2 -0.3,1.2 -0.7,2.3 -1.1,3.5 -8.3,23.3 -33.2,29.4 -49.9,43.4 -45.3,37.9 -78.9,83.3 -98.7,138.3 -31.8,88.6 -25.3,175.4 17.3,259.2 6.9,13.6 15.4,26.5 24.5,38.8 5.4,7.4 7.1,14.8 6.4,23.3 v 0.3 c 0,8.7 6.6,13.4 11.9,18.8 17.6,17.8 34.9,35.9 55.2,50.6 2,1.4 4,2.9 6,4.3 -1.5,-39.8 -3.1,-79.6 -4.6,-119.4 -0.1,0 -0.1,-0.1 -0.2,-0.1 -34.6,-22.7 -60,-51.7 -64.4,-94.9 -5.5,-53.3 16.9,-92.7 60.5,-121.4 0.2,-0.1 0.4,-0.3 0.6,-0.4 -1.7,-28 3.7,-54.8 13.7,-80.7 33.3,-86.5 133.9,-143.3 216.8,-122.5 0.1,0 0.2,0 0.3,0.1 55,8.9 100.2,34 132.6,80.1 25.9,36.9 39.3,77.6 36.5,123 31.2,23.7 56.4,51.5 60.5,92.6 5.5,55.3 -18.1,95.7 -64.6,123.9 v 0.5 c -1.5,38.2 -3.1,76.4 -4.6,114.7 2.2,-1 4.3,-2 6.3,-3.1 12.4,-6.5 23.2,-15.2 32.8,-24.9 z"
     id="path36"
     inkscape:connector-curvature="0"
     style="fill:#cdecf6" />
  <path
     d="m 595.65266,390.19654 c 34.3,-16.9 67.6,-7.8 100.7,3.1 1.2,0.4 2.5,0.8 3.7,1.2 2.8,-45.5 -10.6,-86.2 -36.5,-123 -32.4,-46.1 -77.6,-71.2 -132.6,-80.1 h -0.3 c -8.2,1.6 -17.3,-1.8 -27.4,4 67.6,56.6 76.9,129.2 63.6,208.3 2.1,-1 4.1,-1.9 6.2,-2.9 7.7,-3.5 15.2,-6.9 22.6,-10.6 z"
     id="path38"
     inkscape:connector-curvature="0"
     style="fill:#fe6b3c" />
  <path
     d="m 760.65266,487.19654 c -4.1,-41.1 -29.3,-68.9 -60.5,-92.6 -1.2,-0.4 -2.5,-0.8 -3.7,-1.2 -33.2,-10.9 -66.4,-20 -100.7,-3.1 -7.4,3.7 -15,7.2 -22.5,10.7 -2.1,1 -4.1,1.9 -6.2,2.9 -5,5.7 -9.6,11.9 -15,17.2 -32.4,31.6 -36.9,70.7 -28.3,112.1 13.1,63.1 90.1,115.6 171.9,78.2 0.1,-0.1 0.3,-0.1 0.4,-0.2 46.5,-28.3 70.2,-68.8 64.6,-124 z m -122.3,110.5 c -53.1,-0.4 -94.5,-42.6 -94,-95.9 0.5,-52.5 43.4,-94.1 96.3,-93.7 53.2,0.4 93.9,42.3 93.5,96.1 -0.4,53.4 -42,94 -95.8,93.5 z"
     id="path40"
     inkscape:connector-curvature="0"
     style="fill:#fe6142" />
  <path
     d="m 299.55266,394.89654 c -43.6,28.7 -66,68.1 -60.5,121.4 4.4,43.2 29.8,72.2 64.4,94.9 0.1,0 0.1,0.1 0.2,0.1 20.6,6.1 41.2,9.7 63.1,9.4 74.6,-1.1 130.9,-77.3 109.8,-149.5 -20.3,-69.3 -94.1,-114.8 -176.2,-76.7 -0.4,0.1 -0.6,0.3 -0.8,0.4 z m 59.6,202.8 c -54.5,0.2 -96.7,-41.6 -96.5,-95.8 0.1,-53.2 41.6,-94.4 95.1,-94.7 54.1,-0.3 97.3,42.3 97.1,95.5 -0.2,52.3 -43.1,94.8 -95.7,95 z"
     id="path42"
     inkscape:connector-curvature="0"
     style="fill:#fe6143" />
  <path
     d="m 446.25266,729.29654 c -3.7,-3.7 -6.4,-8.7 -12.6,-8.8 -1.2,37.2 32.8,76.6 66.3,76.7 35.5,0.1 66.4,-35.2 66.3,-75.7 -13.4,6.9 -21.9,21.1 -37.3,25.3 -30.7,8.4 -58.9,6.3 -82.7,-17.5 z"
     id="path44"
     inkscape:connector-curvature="0"
     style="fill:#070909" />
  <path
     d="m 569.95266,686.49654 c -22.5,16.5 -44,30.6 -71.6,30.1 -27,-0.5 -47,-17.3 -70.9,-33.6 2.6,15.4 4.4,26.4 6.2,37.5 6.2,0.2 8.9,5.1 12.6,8.8 23.7,23.8 52,25.9 82.7,17.5 15.4,-4.2 23.9,-18.3 37.3,-25.3 -3.6,-11.5 8.5,-21.8 3.7,-35 z"
     id="path46"
     inkscape:connector-curvature="0"
     style="fill:#fdfcfb" />
  <path
     d="m 419.25266,256.39654 c -17.7,0.3 -26,10.4 -27.6,25.3 0.3,20.4 12.1,29.3 27.8,29.1 14.9,-0.3 26.3,-11.9 26.6,-26.6 0.3,-15.6 -8.1,-28.2 -26.8,-27.8 z"
     id="path48"
     inkscape:connector-curvature="0"
     style="fill:#fea777" />
  <path
     d="m 235.05266,656.79654 c 0.7,-8.5 -1,-15.9 -6.4,-23.3 -9,-12.3 -17.6,-25.2 -24.5,-38.8 -42.6,-83.8 -49.2,-170.6 -17.3,-259.2 19.8,-55 53.4,-100.4 98.7,-138.3 16.7,-14 41.6,-20 49.9,-43.4 0.4,-1.1 0.8,-2.3 1.1,-3.5 -7.5,-4.9 -13.7,-10.8 -24.5,-4.2 -63.8,39 -111.3,91.5 -142.2,160.2 -24.3,54.1 -29.50001,110.3 -26.70001,168.1 3.20001,65.3 26.30001,123.5 64.70001,175.9 6.9,9.4 15.5,15.3 27.2,6.8 z"
     id="path50"
     inkscape:connector-curvature="0"
     style="fill:#fdfefe" />
  <path
     d="m 386.55266,132.19653 c 0.2,-0.1 0.4,-0.3 0.6,-0.4 -0.2,-16.29999 -8.9,-28.89999 -24.4,-25.19999 -15.4,3.7 -15.1,18.99999 -8.7,32.39999 l 0.9,2.1 c 0.8,0.6 1.6,1.1 2.3,1.5 13.1,7.9 20.2,-4.7 29.3,-10.4 z"
     id="path52"
     inkscape:connector-curvature="0"
     style="fill:#fbfdfe" />
  <path
     d="m 734.15266,504.29654 c 0.4,-53.7 -40.3,-95.6 -93.5,-96.1 -53,-0.4 -95.8,41.2 -96.3,93.7 -0.5,53.2 40.9,95.4 94,95.9 53.8,0.4 95.4,-40.2 95.8,-93.5 z m -91.1,10.4 c -18,0.3 -28.5,-9.9 -30.1,-27.6 -1.5,-16.5 13.3,-31.9 29.7,-30.8 17.6,1.3 27.5,11.6 29.6,30 -2.4,16.4 -10.8,28.1 -29.2,28.4 z m -285.3,-107.4 c -53.5,0.3 -94.9,41.5 -95.1,94.7 -0.1,54.2 42,96 96.5,95.8 52.6,-0.2 95.5,-42.7 95.7,-94.9 0.1,-53.3 -43.1,-95.9 -97.1,-95.6 z m 0.1,107.4 c -17.8,0.2 -28.5,-10 -29.9,-27.9 -1.3,-16.5 13.6,-31.8 30.1,-30.4 17.4,1.5 27.6,11.6 29.2,30 -2.2,16.9 -11.4,28.1 -29.4,28.3 z"
     class="st0"
     id="path54"
     inkscape:connector-curvature="0"
     style="fill:#fefefe" />
  <path
     d="m 642.65266,456.29654 c -16.4,-1.2 -31.2,14.2 -29.7,30.8 1.6,17.8 12.1,27.9 30.1,27.6 18.3,-0.3 26.8,-12 29.2,-28.4 -2.1,-18.4 -12,-28.7 -29.6,-30 z"
     id="path56"
     inkscape:connector-curvature="0"
     style="fill:#090b0b" />
  <path
     d="m 358.05266,456.39654 c -16.5,-1.4 -31.4,13.9 -30.1,30.4 1.4,17.9 12.1,28.1 29.9,27.9 18,-0.2 27.2,-11.4 29.4,-28.3 -1.7,-18.5 -11.9,-28.6 -29.2,-30 z"
     id="path58"
     inkscape:connector-curvature="0"
     style="fill:#090c0c" />
</svg>
