<?xml version="1.0" encoding="UTF-8" standalone="no"?>
<svg
   xmlns:dc="http://purl.org/dc/elements/1.1/"
   xmlns:cc="http://creativecommons.org/ns#"
   xmlns:rdf="http://www.w3.org/1999/02/22-rdf-syntax-ns#"
   xmlns:svg="http://www.w3.org/2000/svg"
   xmlns="http://www.w3.org/2000/svg"
   xmlns:sodipodi="http://sodipodi.sourceforge.net/DTD/sodipodi-0.dtd"
   xmlns:inkscape="http://www.inkscape.org/namespaces/inkscape"
   viewBox="0 0 50 50"
   version="1.1"
   id="svg3799"
   sodipodi:docname="oidc.svg"
   width="50"
   height="50"
   inkscape:version="0.92.4 (f8dce91, 2019-08-02)">
  <metadata
     id="metadata3803">
    <rdf:RDF>
      <cc:Work
         rdf:about="">
        <dc:format>image/svg+xml</dc:format>
        <dc:type
           rdf:resource="http://purl.org/dc/dcmitype/StillImage" />
        <dc:title>oidc</dc:title>
      </cc:Work>
    </rdf:RDF>
  </metadata>
  <sodipodi:namedview
     pagecolor="#ffffff"
     bordercolor="#666666"
     borderopacity="1"
     objecttolerance="10"
     gridtolerance="10"
     guidetolerance="10"
     inkscape:pageopacity="0"
     inkscape:pageshadow="2"
     inkscape:window-width="1712"
     inkscape:window-height="899"
     id="namedview3801"
     showgrid="false"
     inkscape:zoom="6.075"
     inkscape:cx="66.897654"
     inkscape:cy="16.060002"
     inkscape:window-x="0"
     inkscape:window-y="27"
     inkscape:window-maximized="1"
     inkscape:current-layer="Layer_2"
     fit-margin-top="10"
     fit-margin-left="10"
     fit-margin-right="10"
     fit-margin-bottom="10" />
  <defs
     id="defs3780">
    <style
       id="style3778">.cls-1{fill:none;}.cls-2{fill:#f48018;}.cls-3{fill:#aeb0b3;}.cls-4{fill:#1a1818;}.cls-5,.cls-6{isolation:isolate;}.cls-6{font-size:21.44px;fill:#999;font-family:Helvetica, Helvetica;}</style>
  </defs>
  <title
     id="title3782">oidc</title>
  <g
     id="Layer_2"
     data-name="Layer 2"
     transform="translate(-34.09,-16.059999)">
    <rect
       id="Rectangle-11"
       class="cls-1"
       width="200"
       height="100"
       x="0"
       y="0"
       style="fill:none" />
    <polygon
       id="Shape"
       class="cls-2"
       points="60.8,24.73 60.8,56.06 66.36,53.44 66.36,22.01 "
       style="fill:#f48018"
       transform="translate(-3.38,2.024999)" />
    <path
       id="Shape-2"
       data-name="Shape"
       class="cls-3"
       d="m 46.27,46.164999 c 0,-4 4.3,-7.27 10.16,-8.29 v -3.53 c -9,1.08 -15.72,6 -15.72,11.82 0,6.07 7.26,11.09 16.71,11.92 v -3.49 c -6.36,-0.8 -11.15,-4.27 -11.15,-8.43 z m 20.43,-4.58 10.77,2.35 -0.77,-8 -2.86,1.61 a 25,25 0 0 0 -9.88,-3.21 v 3.53 a 17.37,17.37 0 0 1 6.08,2.2 l -0.32,-0.19 z"
       inkscape:connector-curvature="0"
       style="fill:#aeb0b3" />
    <polygon
       id="Shape-4"
       data-name="Shape"
       class="cls-2"
       points="60.8,24.73 60.8,56.06 66.36,53.44 66.36,22.01 "
       style="fill:#f48018"
       transform="translate(-3.38,2.024999)" />
    <path
       id="Shape-5"
       data-name="Shape"
       class="cls-3"
       d="m 46.27,46.164999 c 0,-4 4.3,-7.27 10.16,-8.29 v -3.53 c -9,1.08 -15.72,6 -15.72,11.82 0,6.07 7.26,11.09 16.71,11.92 v -3.49 c -6.36,-0.8 -11.15,-4.27 -11.15,-8.43 z"
       inkscape:connector-curvature="0"
       style="fill:#aeb0b3" />
  </g>
</svg>
