<?xml version="1.0" encoding="utf-8"?>
<svg viewBox="100 0 100 100" width="100" height="100" xmlns="http://www.w3.org/2000/svg">
  <defs>
    <style>
    text {
      font: small Verdana, Helvetica, Arial, sans-serif;
    }
    .step {
      animation-duration: 4s;
      animation-iteration-count: infinite;
    }
    .step1 { animation-name: step1; }
    .step2 { animation-name: step2; }
    .step3 { animation-name: step3; }
    .step4 { animation-name: step4; }

    @keyframes step1 {
      0% { opacity: 0; }
      25% { opacity: 1; }
    }
    @keyframes step2 {
      0% { opacity: 0; }
      25% { opacity: 0; }
      50% { opacity: 1; }
    }
    @keyframes step3 {
      0% { opacity: 0; }
      50% { opacity: 0; }
      75% { opacity: 1; }
    }
    @keyframes step4 {
      0% { opacity: 0; }
      75% { opacity: 0; }
      100% { opacity: 1; }
    }
  </style>
  </defs>
  <g id="Layer_2" data-name="Layer 2" transform="matrix(2, 0, 0, 2, 72.529999, -250)">
    <rect id="Rectangle-11" class="cls-1" width="50" height="50" style="fill:none" x="13.735" y="125"/>
    <polygon id="polygon-1" class="cls-2" points="37.065 135.695 37.065 167.025 42.625 164.405 42.625 132.975" style="fill:#f48018"/>
    <path id="Shape-2" data-name="Shape" class="cls-3" d="M 25.915 155.105 C 25.915 151.105 30.215 147.835 36.075 146.815 L 36.075 143.285 C 27.075 144.365 20.355 149.285 20.355 155.105 C 20.355 161.175 27.615 166.195 37.065 167.025 L 37.065 163.535 C 30.705 162.735 25.915 159.265 25.915 155.105 Z M 46.345 150.525 L 57.115 152.875 L 56.345 144.875 L 53.485 146.485 C 50.453 144.735 47.087 143.641 43.605 143.275 L 43.605 146.805 C 45.751 147.151 47.814 147.898 49.685 149.005 L 49.365 148.815 Z" style="fill:#aeb0b3"/>
    <polygon id="Shape-4" data-name="Shape" class="cls-2" points="37.065 135.695 37.065 167.025 42.625 164.405 42.625 132.975" style="fill:#f48018"/>
    <path id="Shape-5" data-name="Shape" class="cls-3" d="M 25.915 155.105 C 25.915 151.105 30.215 147.835 36.075 146.815 L 36.075 143.285 C 27.075 144.365 20.355 149.285 20.355 155.105 C 20.355 161.175 27.615 166.195 37.065 167.025 L 37.065 163.535 C 30.705 162.735 25.915 159.265 25.915 155.105 Z" style="fill:#aeb0b3"/>
  </g>
</svg>